General

Format : Matroska
Format version : Version 2
File size : 982 MiB
Duration : 2h 18mn
Overall bit rate : 995 Kbps
Encoded date : UTC 2011-12-21 10:21:08
Writing application : mkvmerge v4.3.0 ('Escape from the Island') built on Sep 5 2010 10:30:51
Writing library : libebml v1.0.0 + libmatroska v1.0.0

Video
ID : 1
Format : AVC
Format/Info : Advanced Video Codec
Format profile : High@L3.1
Format settings, CABAC : Yes
Format settings, ReFrames : 5 frames
Muxing mode : Header stripping
Codec ID : V_MPEG4/ISO/AVC
Duration : 2h 18mn
Bit rate : 849 Kbps
Width : 1 280 pixels
Height : 544 pixels
Display aspect ratio : 2.35:1
Frame rate : 23.976 fps
Color space : YUV
Chroma subsampling : 4:2:0
Bit depth : 8 bits
Scan type : Progressive
Bits/(Pixel*Frame) : 0.051
Stream size : 821 MiB (84%)
Title : Shutter.Island.2010.720.BRRip.Dual Audio (Hindi-English)~JAGJIT639~KHARAY-=KSRR=-


Audio #1
ID : 2
Format : MPEG Audio
Format version : Version 2
Format profile : Layer 3
Mode : Joint stereo
Mode extension : MS Stereo
Muxing mode : Header stripping
Codec ID : A_MPEG/L3
Codec ID/Hint : MP3
Duration : 2h 18mn
Bit rate mode : Constant
Bit rate : 96.0 Kbps
Channel(s) : 2 channels
Sampling rate : 24.0 KHz
Compression mode : Lossy
Stream size : 94.8 MiB (10%)
Title : Hindi Audio -=KSRR=-
Writing library : LAME3.98r
Encoding settings : -m j -V 4 -q 2 -lowpass 12 -b 96
Language : Hindi

Audio #2
ID : 3
Format : MPEG Audio
Format version : Version 2
Format profile : Layer 3
Mode : Joint stereo
Mode extension : MS Stereo
Muxing mode : Header stripping
Codec ID : A_MPEG/L3
Codec ID/Hint : MP3
Duration : 2h 18mn
Bit rate mode : Constant
Bit rate : 48.0 Kbps
Channel(s) : 2 channels
Sampling rate : 22.05 KHz
Compression mode : Lossy
Stream size : 47.4 MiB (5%)
Title : English Audio
Language : English


Screens
 
http://www.postimg.com/56000/photo-55297.jpg
 
http://www.postimg.com/56000/photo-55296.jpg
 
http://www.postimg.com/56000/photo-55298.jpg
 
http://www.postimg.com/56000/photo-55299.jpg
 
http://www.postimg.com/56000/photo-55300.jpg
 
http://www.postimg.com/56000/photo-55301.jpg